<svg width="712" height="589" viewBox="0 0 712 589" fill="none" xmlns="http://www.w3.org/2000/svg"><path d="M254.892 228.293C300.678 184.721 356.962 155.112 410.927 142.451C464.895 129.79 516.488 134.085 552.998 158.24C589.508 182.394 604.11 221.892 598.117 266.293C592.124 310.692 565.538 359.949 519.753 403.521C473.968 447.093 417.683 476.702 363.718 489.362C309.75 502.024 258.157 497.728 221.648 473.574C185.138 449.42 170.535 409.921 176.528 365.521C182.521 321.122 209.107 271.865 254.892 228.293Z" stroke="white"></path><path d="M223.252 207.348C269.037 163.775 325.321 134.167 379.287 121.506C433.254 108.845 484.847 113.14 521.357 137.295C557.867 161.449 572.469 200.947 566.476 245.348C560.484 289.747 533.898 339.003 488.112 382.576C442.327 426.148 386.043 455.756 332.077 468.417C278.11 481.079 226.517 476.783 190.007 452.629C153.497 428.474 138.895 388.976 144.888 344.575C150.88 300.176 177.466 250.92 223.252 207.348Z" stroke="white"></path><path d="M191.619 186.408C237.404 142.836 293.688 113.228 347.654 100.567C401.622 87.9052 453.214 92.2006 489.724 116.355C526.234 140.509 540.836 180.008 534.844 224.409C528.851 268.808 502.265 318.064 456.48 361.636C410.694 405.208 354.41 434.817 300.445 447.478C246.477 460.139 194.884 455.844 158.374 431.689C121.864 407.535 107.262 368.037 113.255 323.636C119.248 279.237 145.833 229.98 191.619 186.408Z" stroke="white"></path></svg>