<svg width="321" height="68" viewBox="0 0 321 68" fill="none" xmlns="http://www.w3.org/2000/svg"><path fill-rule="evenodd" clip-rule="evenodd" d="M159.846 60.9456C173.204 69.8862 193.204 69.8862 206.177 60.9456V55.4261C191.351 64.1337 174.516 64.1337 159.846 55.4261V60.9456ZM183.089 53.3777C171.892 53.3777 164.169 45.2924 164.169 33.7086C164.169 22.2804 171.892 14.2733 183.089 14.2733C194.208 14.2733 201.853 22.203 201.853 33.7086C201.853 45.2924 194.208 53.3777 183.089 53.3777ZM183.086 8.98867C168.414 8.98867 157.991 19.3279 157.991 33.7105C157.991 48.2487 168.414 58.6661 183.086 58.6661C197.759 58.6661 208.028 48.3261 208.028 33.7105C208.028 19.2505 197.759 8.98867 183.086 8.98867ZM159.846 6.70542V12.2249C174.516 3.51806 191.351 3.51806 206.177 12.2249V6.70542C193.204 -2.23514 173.204 -2.23514 159.846 6.70542ZM0 9.84862H40.3862V57.5825H34.0545V15.9122H6.40943V57.5825H0V9.84862ZM102.483 9.84862H110.899L127.27 50.6628L143.177 9.84862H151.593V57.5825H145.493V30.606C145.493 23.6863 145.648 21.0431 145.957 16.3008H145.803C145.108 19.0996 144.259 21.9766 140.551 31.0719L130.05 56.9602H123.796L111.98 28.1175C109.742 22.6755 108.428 18.2443 108.042 16.3008H107.889C108.196 19.5663 108.352 24.8528 108.352 30.3722V57.5825H102.483V9.84862ZM277.064 51.8293V67.4557H271.041V57.5825H214.594V9.84862H220.617V51.8293H239.536V9.84862H245.636V51.8293H264.554V9.84862H270.655V51.8293H277.064ZM282.776 9.84862H288.798V29.284H306.714C315.826 29.284 321 34.4149 321 43.2773C321 51.9067 315.053 57.5825 305.787 57.5825H282.776V9.84862ZM305.789 51.4396C311.117 51.4396 314.36 48.4078 314.36 43.1987C314.36 37.9896 311.35 35.1908 305.789 35.1908H288.8V51.4396H305.789ZM46.8795 33.4807C46.8795 19.098 57.3035 8.75807 71.5124 8.75807C85.7212 8.75807 95.99 19.0206 95.99 33.4807C95.99 48.0963 85.7212 58.4355 71.5124 58.4355C57.3035 58.4355 46.8795 48.0181 46.8795 33.4807ZM89.8129 33.4788C89.8129 21.9732 82.168 14.0427 71.5125 14.0427C60.7779 14.0427 53.0577 22.0506 53.0577 33.4788C53.0577 45.0626 60.7779 53.1479 71.5125 53.1479C82.168 53.1479 89.8129 45.0626 89.8129 33.4788Z" fill="white"></path></svg>