<svg width="23" height="22" viewBox="0 0 23 22" fill="none" xmlns="http://www.w3.org/2000/svg"><path fill-rule="evenodd" clip-rule="evenodd" d="M3.307 2.253a1.06 1.06 0 00-.752.313c-.2.2-.311.472-.311.755v15.358a1.06 1.06 0 001.063 1.067H18.6a1.068 1.068 0 001.063-1.067V11c0-.622.502-1.127 1.122-1.127.62 0 1.122.505 1.122 1.127v7.68c0 .88-.349 1.725-.969 2.347A3.3 3.3 0 0118.6 22H3.307a3.3 3.3 0 01-2.338-.973A3.328 3.328 0 010 18.68V3.321C0 2.44.348 1.595.969.973A3.3 3.3 0 013.307 0h12.017c.62 0 1.121.504 1.121 1.127 0 .622-.502 1.126-1.122 1.126H3.307zm19.364-.826a1.13 1.13 0 010 1.593L11.747 13.99c-.438.44-1.148.44-1.587 0L6.883 10.7a1.13 1.13 0 010-1.594 1.119 1.119 0 011.587 0l2.484 2.495 10.13-10.174a1.119 1.119 0 011.587 0z" fill="#FF6562"/></svg>