<svg width="643" height="643" viewBox="0 0 643 643" fill="none" xmlns="http://www.w3.org/2000/svg"><path d="M411.976 230.893c47.589 47.59 77.257 104.06 86.771 156.87 9.515 52.813-1.131 101.915-34.087 134.871s-82.057 43.601-134.87 34.087c-52.81-9.514-109.28-39.182-156.87-86.772s-77.258-104.06-86.772-156.87c-9.514-52.813 1.13-101.914 34.087-134.871 32.956-32.956 82.058-43.601 134.87-34.087 52.811 9.514 109.281 39.182 156.871 86.772z" stroke="#000"/><path d="M440.522 202.342c47.59 47.59 77.258 104.06 86.772 156.871 9.514 52.812-1.131 101.914-34.087 134.87s-82.058 43.601-134.87 34.087c-52.81-9.514-109.281-39.182-156.87-86.772-47.59-47.59-77.258-104.06-86.772-156.87-9.514-52.813 1.131-101.914 34.087-134.87s82.058-43.602 134.87-34.087c52.811 9.513 109.281 39.182 156.87 86.771z" stroke="#000"/><path d="M469.085 173.788c47.59 47.589 77.258 104.06 86.772 156.87 9.514 52.813-1.131 101.914-34.087 134.87s-82.058 43.601-134.871 34.087c-52.81-9.514-109.28-39.182-156.87-86.772-47.59-47.589-77.258-104.059-86.772-156.87-9.514-52.812 1.131-101.914 34.087-134.87s82.058-43.601 134.871-34.087c52.81 9.514 109.28 39.182 156.87 86.772z" stroke="#000"/></svg>