<svg width="970" height="945" viewBox="0 0 970 945" fill="none" xmlns="http://www.w3.org/2000/svg"><path d="M522.286 267.566c71.864 36.658 131.36 91.866 169.464 151.465 38.106 59.602 54.791 123.546 41.147 177.751-13.644 54.205-55.061 88.511-111.085 100.096-56.022 11.586-126.609.438-198.473-36.22-71.864-36.658-131.36-91.865-169.464-151.465-38.105-59.601-54.791-123.545-41.147-177.75 13.645-54.206 55.061-88.511 111.086-100.097 56.022-11.585 126.608-.438 198.472 36.22z" stroke="#fff"/><path d="M534.107 220.633c71.863 36.658 131.359 91.865 169.463 151.465 38.106 59.601 54.792 123.545 41.148 177.75-13.645 54.206-55.061 88.511-111.086 100.097-56.022 11.585-126.608.437-198.472-36.22-71.864-36.658-131.36-91.866-169.464-151.465-38.106-59.602-54.792-123.546-41.147-177.751 13.644-54.205 55.061-88.511 111.085-100.097 56.022-11.585 126.609-.437 198.473 36.221z" stroke="#fff"/><path d="M545.927 173.701c71.864 36.658 131.36 91.866 169.464 151.465 38.105 59.602 54.791 123.545 41.147 177.751-13.644 54.205-55.061 88.51-111.085 100.096-56.023 11.586-126.609.438-198.473-36.22-71.864-36.658-131.36-91.866-169.464-151.465-38.105-59.602-54.791-123.545-41.147-177.751 13.644-54.205 55.061-88.51 111.085-100.096 56.023-11.586 126.609-.438 198.473 36.22z" stroke="#fff"/></svg>