<svg width="23" height="22" viewBox="0 0 23 22" fill="none" xmlns="http://www.w3.org/2000/svg"><path fill-rule="evenodd" clip-rule="evenodd" d="M3.3068 2.25337C3.0249 2.25337 2.75455 2.36583 2.55522 2.566C2.35589 2.76617 2.2439 3.03767 2.2439 3.32075V18.6792C2.2439 18.9623 2.35589 19.2338 2.55522 19.434C2.75455 19.6342 3.02491 19.7466 3.3068 19.7466H18.6008C18.8827 19.7466 19.153 19.6342 19.3524 19.434C19.5517 19.2338 19.6637 18.9623 19.6637 18.6792V11C19.6637 10.3777 20.166 9.87332 20.7856 9.87332C21.4053 9.87332 21.9076 10.3777 21.9076 11V18.6792C21.9076 19.56 21.5592 20.4046 20.939 21.0274C20.3189 21.6501 19.4778 22 18.6008 22H3.3068C2.42978 22 1.58869 21.6501 0.96854 21.0274C0.348394 20.4046 0 19.56 0 18.6792V3.32075C0 2.44004 0.348394 1.59539 0.96854 0.972626C1.58869 0.349864 2.42978 0 3.3068 0H15.3235C15.9431 0 16.4454 0.504434 16.4454 1.12668C16.4454 1.74894 15.9431 2.25337 15.3235 2.25337H3.3068ZM22.6714 1.42703C23.1095 1.86703 23.1095 2.58041 22.6714 3.02041L11.7471 13.9908C11.309 14.4308 10.5986 14.4308 10.1604 13.9908L6.88317 10.6997C6.44502 10.2597 6.44502 9.54628 6.88317 9.10628C7.32132 8.66628 8.0317 8.66628 8.46985 9.10628L10.9538 11.6007L21.0847 1.42703C21.5229 0.987036 22.2332 0.987036 22.6714 1.42703Z" fill="#FF6562"></path></svg>