<svg width="643" height="643" viewBox="0 0 643 643" fill="none" xmlns="http://www.w3.org/2000/svg"><path d="M411.976 230.893C459.565 278.483 489.233 334.953 498.747 387.763C508.262 440.576 497.616 489.678 464.66 522.634C431.704 555.59 382.603 566.235 329.79 556.721C276.98 547.207 220.51 517.539 172.92 469.949C125.33 422.359 95.6619 365.889 86.148 313.079C76.6338 260.266 87.2789 211.165 120.235 178.208C153.191 145.252 202.293 134.607 255.105 144.121C307.916 153.635 364.386 183.303 411.976 230.893Z" stroke="black"></path><path d="M440.522 202.342C488.112 249.932 517.78 306.402 527.294 359.213C536.808 412.025 526.163 461.127 493.207 494.083C460.251 527.039 411.149 537.684 358.337 528.17C305.527 518.656 249.056 488.988 201.467 441.398C153.877 393.808 124.209 337.338 114.695 284.528C105.181 231.715 115.826 182.614 148.782 149.658C181.738 116.702 230.84 106.056 283.652 115.571C336.463 125.084 392.933 154.753 440.522 202.342Z" stroke="black"></path><path d="M469.085 173.788C516.675 221.377 546.343 277.848 555.857 330.658C565.371 383.471 554.726 432.572 521.77 465.528C488.814 498.484 439.712 509.129 386.899 499.615C334.089 490.101 277.619 460.433 230.029 412.843C182.439 365.254 152.771 308.784 143.257 255.973C133.743 203.161 144.388 154.059 177.344 121.103C210.3 88.1469 259.402 77.5017 312.215 87.016C365.025 96.5298 421.495 126.198 469.085 173.788Z" stroke="black"></path></svg>